<svg xmlns="http://www.w3.org/2000/svg" width="24" height="24" viewBox="0 0 24 24">
  <path d="M19.121 13.707l-.533-.533a2 2 0 0 1-.588-1.42V10a5.984 5.984 0 0 0-4.533-5.813A1.5 1.5 0 0 0 12 3a1.5 1.5 0 0 0-1.465 1.189A6 6 0 0 0 6 10v1.74a2.057 2.057 0 0 1-.6 1.446l-.521.522A2.98 2.98 0 0 0 4 15.828V17a1 1 0 0 0 1 1h4a3 3 0 0 0 6 0h4a1 1 0 0 0 1-1v-1.172a2.98 2.98 0 0 0-.879-2.121zM12 19a1 1 0 0 1-1-1h2a1 1 0 0 1-1 1zm6-3H6v-.172a1.007 1.007 0 0 1 .293-.707l.521-.521A4.071 4.071 0 0 0 8 11.738V10a4 4 0 0 1 8 0v1.754a3.982 3.982 0 0 0 1.174 2.834l.533.533a1.009 1.009 0 0 1 .293.707V16z"/>
</svg>
