<svg width="24" height="24" viewBox="0 0 24 24" xmlns="http://www.w3.org/2000/svg">
  <path d="M9.666 6.331c0-.549-.452-1-1-1-.271 0-.531.11-.719.304l-5.656 5.657a1.004 1.004 0 0 0 0 1.414l5.656 5.656a1.002 1.002 0 0 0 1.722-.693 1 1 0 0 0-.308-.721l-4.949-4.949 4.949-4.95a.999.999 0 0 0 .305-.718zM14.334 6.331c0-.549.452-1 1-1 .271 0 .531.11.719.304l5.656 5.657a1.004 1.004 0 0 1 0 1.414l-5.656 5.656a1.002 1.002 0 0 1-1.722-.693 1 1 0 0 1 .308-.721l4.949-4.949-4.949-4.95a.999.999 0 0 1-.305-.718z"/>
</svg>
