<svg width="24" height="24" viewBox="0 0 24 24" xmlns="http://www.w3.org/2000/svg">
  <path d="M10.828 16H13c.265 0 .52.106.707.293L16 18.586V17c0-.548.451-1 1-1h3V8h-1V6h1.25c.955 0 1.75.795 1.75 1.75v8.5c0 .955-.795 1.75-1.75 1.75H18v3c0 .549-.452 1-1 1a.997.997 0 0 1-.707-.293L12.586 18H8.828l2-2z"/>
  <path d="M3.75 2C2.795 2 2 2.795 2 3.75v8.5c0 .955.795 1.75 1.75 1.75H6v3c0 .549.452 1 1 1 .265 0 .52-.105.707-.293L11.414 14h4.836A1.752 1.752 0 0 0 18 12.25v-8.5C18 2.795 17.205 2 16.25 2H3.75zM4 4h12v8h-5c-.265 0-.52.106-.707.293L8 14.586V13c0-.548-.451-1-1-1H4V4z"/>
</svg>
