<svg width="24" height="24" viewBox="0 0 24 24" xmlns="http://www.w3.org/2000/svg">
  <path d="M10.244 3.174c-.406.08-.721.405-.791.812L9.16 5.711c-.418.189-.81.418-1.183.685l-1.645-.609a1.004 1.004 0 0 0-1.1.279 9.004 9.004 0 0 0-1.753 3.041 1 1 0 0 0 .308 1.09l1.348 1.119a6.948 6.948 0 0 0 0 1.368l-1.348 1.119a1 1 0 0 0-.308 1.09 9.004 9.004 0 0 0 1.753 3.041c.273.311.712.422 1.1.279l1.645-.609c.373.267.765.496 1.183.685l.293 1.725c.07.407.385.732.791.812a8.986 8.986 0 0 0 3.512 0c.406-.08.721-.405.791-.812l.293-1.725c.418-.189.81-.418 1.183-.685l1.645.609c.388.143.827.032 1.1-.279a9.004 9.004 0 0 0 1.753-3.041 1 1 0 0 0-.308-1.09l-1.348-1.119a6.948 6.948 0 0 0 0-1.368l1.348-1.119a1 1 0 0 0 .308-1.09 9.004 9.004 0 0 0-1.753-3.041 1.004 1.004 0 0 0-1.1-.279l-1.645.609a6.934 6.934 0 0 0-1.183-.685l-.293-1.725a1.002 1.002 0 0 0-.791-.812 8.986 8.986 0 0 0-3.512 0zm1.043 1.961c.476-.049.95-.049 1.426 0l.23 1.351c.062.361.318.66.664.778a5.016 5.016 0 0 1 1.69.976c.276.242.664.314 1.008.186l1.285-.477c.28.388.517.799.713 1.235l-1.057.875a1.002 1.002 0 0 0-.342.964 5.02 5.02 0 0 1 0 1.954c-.071.359.06.73.342.964l1.057.875a7.025 7.025 0 0 1-.713 1.235l-1.285-.477a1.001 1.001 0 0 0-1.008.186 5.016 5.016 0 0 1-1.69.976 1.003 1.003 0 0 0-.664.778l-.23 1.351c-.476.049-.95.049-1.426 0l-.23-1.351a1.003 1.003 0 0 0-.664-.778 5.016 5.016 0 0 1-1.69-.976 1.001 1.001 0 0 0-1.008-.186l-1.285.477a7.025 7.025 0 0 1-.713-1.235l1.057-.875c.282-.234.413-.605.342-.964a5.02 5.02 0 0 1 0-1.954c.071-.359-.06-.73-.342-.964l-1.057-.875c.196-.436.433-.847.713-1.235l1.285.477c.344.128.732.056 1.008-.186a5.016 5.016 0 0 1 1.69-.976c.346-.118.602-.417.664-.778l.23-1.351zM12 8.76A3.255 3.255 0 0 0 8.76 12 3.255 3.255 0 0 0 12 15.24 3.255 3.255 0 0 0 15.24 12 3.255 3.255 0 0 0 12 8.76zm0 2c.694 0 1.24.546 1.24 1.24s-.546 1.24-1.24 1.24-1.24-.546-1.24-1.24.546-1.24 1.24-1.24z"/>
</svg>
