<svg xmlns="http://www.w3.org/2000/svg" width="24" height="24" viewBox="0 0 24 24">
  <path d="M19 8h-.354a3.491 3.491 0 0 0-5.621-3.975A5.6 5.6 0 0 0 12 5.715a5.6 5.6 0 0 0-1.025-1.69A3.491 3.491 0 0 0 5.354 8H5a2 2 0 0 0-2 2v2a2 2 0 0 0 1 1.724V19a2 2 0 0 0 2 2h12a2 2 0 0 0 2-2v-5.279A2 2 0 0 0 21 12v-2a2 2 0 0 0-2-2zm0 4h-6v-1.967h.282c.377 0 .785-.011 1.2-.037H19v2zm-3.5-7a1.5 1.5 0 0 1 1.063 2.558A5.577 5.577 0 0 1 14.218 8h-.913a7.948 7.948 0 0 1 1.134-2.561A1.5 1.5 0 0 1 15.5 5zM7.438 7.559a1.5 1.5 0 0 1 2.123-2.12A7.826 7.826 0 0 1 10.7 8h-.927a5.576 5.576 0 0 1-2.335-.441zM5 10h4.519c.414.026.821.037 1.2.037h.282V12H5v-2zm1 4h5v5H6v-5zm7 5v-5h5v5h-5z"/>
</svg>
