<svg width="24" height="24" viewBox="0 0 24 24" xmlns="http://www.w3.org/2000/svg">
  <path d="M8 4C5.251 4 3 6.251 3 9c0 3.496 2.236 6.221 4.346 8.051s4.218 2.849 4.218 2.849a1 1 0 0 0 .874-.002c-.001 0 2.109-1.024 4.218-2.857C18.766 15.208 21 12.486 21 9c0-2.749-2.251-5-5-5a4.996 4.996 0 0 0-3.535 1.465L12 5.93l-.465-.465A4.996 4.996 0 0 0 8 4zm0 2a2.98 2.98 0 0 1 2.121.879l1.172 1.172a1.004 1.004 0 0 0 1.414 0l1.172-1.172A2.98 2.98 0 0 1 16 6c1.667 0 3 1.333 3 3 0 2.611-1.766 4.888-3.656 6.531-1.672 1.453-2.979 2.087-3.344 2.274-.363-.186-1.673-.815-3.346-2.266C6.764 13.9 5 11.625 5 9c0-1.667 1.333-3 3-3z"/>
</svg>
