<svg xmlns="http://www.w3.org/2000/svg" width="24" height="24" viewBox="0 0 24 24">
  <path d="M12 3a9 9 0 1 0 9 9 9.01 9.01 0 0 0-9-9zm4.3 3.49l-1.43 1.43a4.886 4.886 0 0 0-5.3-.263L8.1 6.189a6.968 6.968 0 0 1 8.2.301zM9 12a3 3 0 1 1 3 3 3 3 0 0 1-3-3zm-4 0a6.967 6.967 0 0 1 1.617-4.468l1.436 1.435a4.918 4.918 0 0 0-.133 5.906L6.49 16.3A6.958 6.958 0 0 1 5 12zm2.934 5.687l1.447-1.447a4.893 4.893 0 0 0 5.652-.293l1.435 1.435a6.967 6.967 0 0 1-8.534.305zm9.877-1.79l-1.468-1.468a4.856 4.856 0 0 0-.1-5.048l1.447-1.447a6.966 6.966 0 0 1 .121 7.966z"/>
</svg>
