<svg xmlns="http://www.w3.org/2000/svg" width="24" height="24" viewBox="0 0 24 24">
  <path d="M10.962 15.867a2.469 2.469 0 0 1-.69 1.377l-1.029 1.028a2.5 2.5 0 0 1-3.536-3.536l1.029-1.029a2.464 2.464 0 0 1 1.423-.694l1.781-1.781a4.425 4.425 0 0 0-4.619 1.062l-1.028 1.028a4.5 4.5 0 0 0 6.364 6.364l1.029-1.029a4.489 4.489 0 0 0 1.073-4.587zM19.686 4.293a4.511 4.511 0 0 0-6.364 0l-1.029 1.029a4.49 4.49 0 0 0-1.063 4.62l1.779-1.779a2.476 2.476 0 0 1 .7-1.427l1.029-1.029a2.5 2.5 0 0 1 3.536 3.536l-1.029 1.029a2.484 2.484 0 0 1-1.379.693l-1.796 1.794a4.409 4.409 0 0 0 4.587-1.072l1.029-1.029a4.5 4.5 0 0 0 0-6.365zM6 10a1 1 0 0 1-.316-.052l-3-1a1 1 0 1 1 .633-1.9l3 1A1 1 0 0 1 6 10zM21 17a1 1 0 0 1-.316-.052l-3-1a1 1 0 1 1 .633-1.9l3 1A1 1 0 0 1 21 17zM16 22a1 1 0 0 1-.949-.684l-1-3a1 1 0 0 1 1.9-.633l1 3A1 1 0 0 1 16 22zM9 7a1 1 0 0 1-.949-.684l-1-3a1 1 0 0 1 1.9-.633l1 3A1 1 0 0 1 9 7z"/>
</svg>
