<svg width="24" height="24" viewBox="0 0 24 24" xmlns="http://www.w3.org/2000/svg">
  <path d="M12 3c-3.852 0-7 3.148-7 7 0 1.13.451 2.257 1.049 3.418.598 1.161 1.37 2.34 2.139 3.408 1.536 2.137 3.068 3.842 3.068 3.842a1 1 0 0 0 1.488 0s1.532-1.705 3.069-3.842c.768-1.068 1.54-2.247 2.138-3.408C18.549 12.257 19 11.13 19 10c0-3.852-3.148-7-7-7zm0 2c2.77 0 5 2.23 5 5 0 .526-.299 1.478-.826 2.502-.527 1.024-1.255 2.139-1.986 3.156-1.093 1.519-1.703 2.181-2.188 2.742-.485-.561-1.095-1.223-2.187-2.742-.732-1.017-1.46-2.132-1.987-3.156C7.299 11.478 7 10.526 7 10c0-2.77 2.23-5 5-5z"/>
  <circle cx="12" cy="10" r="2"/>
</svg>
