<svg width="24" height="24" viewBox="0 0 24 24" xmlns="http://www.w3.org/2000/svg">
  <path d="M16.65 3c-.642 0-1.285.241-1.769.725l-1.567 1.568-8 8a.997.997 0 0 0-.24.388l-2.021 6a1.004 1.004 0 0 0 1.263 1.268l5.918-1.973c.187-.04.359-.134.495-.269l8-8 1.566-1.566a2.516 2.516 0 0 0 0-3.537l-1.877-1.877A2.49 2.49 0 0 0 16.65 3zm.352 2.139v.002l1.879 1.879h.002a.485.485 0 0 1-.002.705l-.86.861L15.436 6l.859-.859a.486.486 0 0 1 .707-.002zm-2.981 2.275L16.607 10l-6.586 6.586L7.436 14l6.585-6.586zm-7.568 8.437l1.699 1.709-2.564.856.865-2.565z"/>
</svg>
