<svg width="24" height="24" viewBox="0 0 24 24" xmlns="http://www.w3.org/2000/svg">
  <path d="M5.037 20.287c.229-2.176 1.349-3.998 3.12-5.12A4.76 4.76 0 0 1 7 12c0-2.749 2.251-5 5-5s5 2.251 5 5a4.766 4.766 0 0 1-1.162 3.168c1.771 1.122 2.896 2.943 3.125 5.119-.63.331-1.286.619-1.965.859L17 21a4.999 4.999 0 0 0-3.234-4.678 1 1 0 0 1-.174-1.783A2.979 2.979 0 0 0 15 12c0-1.667-1.333-3-3-3s-3 1.333-3 3c0 1.079.563 2.012 1.408 2.539a1.001 1.001 0 0 1-.174 1.783A4.999 4.999 0 0 0 7 21l.002.146a14.96 14.96 0 0 1-1.965-.859zm16.96-2.108a4.999 4.999 0 0 0-3.231-4.857 1 1 0 0 1-.174-1.783A2.979 2.979 0 0 0 20 9c0-1.667-1.333-3-3-3-.79 0-1.505.299-2.038.792a5.952 5.952 0 0 0-2.011-.716A5.004 5.004 0 0 1 17 4c2.749 0 5 2.251 5 5 0 1.232-.411 2.296-1.157 3.17 1.492.945 2.479 2.376 2.936 4.114a15.068 15.068 0 0 1-1.782 1.895zM.221 16.284c.457-1.738 1.433-3.177 2.926-4.122C2.401 11.288 2 10.232 2 9c0-2.749 2.251-5 5-5 1.66 0 3.138.821 4.049 2.076a5.952 5.952 0 0 0-2.011.716A2.986 2.986 0 0 0 7 6C5.333 6 4 7.333 4 9c0 1.079.563 2.012 1.408 2.539a1.001 1.001 0 0 1-.174 1.783 4.999 4.999 0 0 0-3.231 4.857 15.068 15.068 0 0 1-1.782-1.895z"/>
</svg>
