<svg width="24" height="24" viewBox="0 0 24 24" xmlns="http://www.w3.org/2000/svg">
  <path d="M3.529 19.014c.654-1.996 2.158-3.796 4.133-4.883C6.629 13.068 6 11.657 6 10c0-3.301 2.699-6 6-6s6 2.699 6 6c0 1.657-.671 3.11-1.654 4.131 1.999 1.105 3.454 2.875 4.125 4.883a11.016 11.016 0 0 1-1.612 1.583 7.004 7.004 0 0 0-4.742-5.269 1.002 1.002 0 0 1-.181-1.83A3.987 3.987 0 0 0 16 10c0-2.219-1.781-4-4-4-2.219 0-4 1.781-4 4 0 1.514.836 2.819 2.064 3.498a1.002 1.002 0 0 1-.181 1.83 7.004 7.004 0 0 0-4.742 5.269 11.016 11.016 0 0 1-1.612-1.583z"/>
</svg>
