<svg width="24" height="24" viewBox="0 0 24 24" xmlns="http://www.w3.org/2000/svg">
  <path d="M3.529 19.014c.782-2.127 2.374-3.863 4.383-4.909C6.819 13.018 6 11.657 6 10c0-3.301 2.699-6 6-6s6 2.699 6 6c0 1.657-.819 3.018-1.912 4.105 2.009 1.046 3.601 2.782 4.383 4.909a11.016 11.016 0 0 1-1.612 1.583 7.004 7.004 0 0 0-4.742-5.269 1.002 1.002 0 0 1-.181-1.83A3.987 3.987 0 0 0 16 10c0-2.219-1.781-4-4-4-2.219 0-4 1.781-4 4 0 1.514.836 2.819 2.064 3.498a1.002 1.002 0 0 1-.181 1.83 7.004 7.004 0 0 0-4.742 5.269 11.016 11.016 0 0 1-1.612-1.583z"/>
</svg>
