<svg width="24" height="24" viewBox="0 0 24 24" xmlns="http://www.w3.org/2000/svg">
  <path d="M4.99 20.01c.122 0 .397-.075.647-.187C9.48 18.091 12 14.244 12 10.01v-.5C12 7.037 9.973 5 7.5 5S3 7.037 3 9.51c0 2.327 1.736 4.248 4.007 4.469.169.017.351.033.493.031.543-.007 1-.457 1-1a1.01 1.01 0 0 0-1-1A2.484 2.484 0 0 1 5 9.51 2.494 2.494 0 0 1 7.5 7C8.893 7 10 8.118 10 9.51v.5a8.73 8.73 0 0 1-5.378 8.071 1.616 1.616 0 0 0-.316.206A1.02 1.02 0 0 0 4 19.01c0 .549.441 1 .99 1zm10 0c.122 0 .397-.075.647-.187C19.48 18.091 22 14.244 22 10.01v-.5C22 7.037 19.973 5 17.5 5S13 7.037 13 9.51c0 2.327 1.736 4.248 4.007 4.469.169.017.351.033.493.031.543-.007 1-.457 1-1a1.01 1.01 0 0 0-1-1 2.484 2.484 0 0 1-2.5-2.5A2.494 2.494 0 0 1 17.5 7C18.893 7 20 8.118 20 9.51v.5a8.73 8.73 0 0 1-5.378 8.071 1.616 1.616 0 0 0-.316.206 1.02 1.02 0 0 0-.306.723c0 .549.441 1 .99 1z"/>
</svg>
