<svg width="24" height="24" viewBox="0 0 24 24" xmlns="http://www.w3.org/2000/svg">
  <path d="M19.01 4c-.122 0-.397.075-.647.188C14.52 5.919 12 9.767 12 14v.5c0 2.473 2.027 4.51 4.5 4.51S21 16.973 21 14.5c0-2.327-1.736-4.248-4.007-4.469A4.993 4.993 0 0 0 16.5 10c-.543.008-1 .457-1 1 0 .543.447.992 1 1 1.393 0 2.5 1.107 2.5 2.5a2.493 2.493 0 0 1-2.5 2.51A2.493 2.493 0 0 1 14 14.5V14a8.73 8.73 0 0 1 5.378-8.071c.134-.055.316-.205.316-.205C19.887 5.535 20 5.27 20 5c0-.549-.441-1-.99-1zm-10 0c-.122 0-.397.075-.647.188C4.52 5.919 2 9.767 2 14v.5c0 2.473 2.027 4.51 4.5 4.51S11 16.973 11 14.5c0-2.327-1.736-4.248-4.007-4.469A4.993 4.993 0 0 0 6.5 10c-.543.008-1 .457-1 1 0 .543.447.992 1 1C7.893 12 9 13.107 9 14.5a2.493 2.493 0 0 1-2.5 2.51A2.493 2.493 0 0 1 4 14.5V14a8.73 8.73 0 0 1 5.378-8.071c.134-.055.316-.205.316-.205C9.887 5.535 10 5.27 10 5c0-.549-.441-1-.99-1z"/>
</svg>
