<svg width="24" height="24" viewBox="0 0 24 24" xmlns="http://www.w3.org/2000/svg">
  <path d="M13.52 3c.606 0 1.181.277 1.56.75.001 0 1.761 2.206 1.787 2.25H20c.549 0 1 .451 1 1 0 .549-.451 1-1 1h-1v11a1.997 1.997 0 0 1-2 2H7a1.997 1.997 0 0 1-2-2V8H4c-.549 0-1-.451-1-1 0-.549.451-1 1-1h3.133c.026-.044 1.787-2.25 1.787-2.25.379-.473.954-.75 1.56-.75h3.04zM17 19V8H7v11h10zM14 9a1 1 0 0 0-1 1v7c0 .549.451 1 1 1 .549 0 1-.451 1-1v-7c0-.549-.451-1-1-1zm-4 0c-.539.004-1.008.452-1 1v7c0 .549.451 1 1 1 .549 0 1-.451 1-1v-7c0-.549-.461-1.004-1-1zm4.319-3l-.799-1h-3.04l-.799 1h4.638z"/>
</svg>
