<svg xmlns="http://www.w3.org/2000/svg" xmlns:xlink="http://www.w3.org/1999/xlink">
  <symbol viewBox="0 0 24 24" id="ni-add">
    <path d="M13 11h7a1 1 0 0 1 0 2h-7v7a1 1 0 0 1-2 0v-7H4a1 1 0 0 1 0-2h7V4a1 1 0 0 1 2 0v7z"/>
  </symbol>
  <symbol viewBox="0 0 24 24" id="ni-arrow-down">
    <path d="M18.364 13.636a1 1 0 0 0-1.414 0L13 17.586V4a1 1 0 0 0-2 0v13.586l-3.95-3.95a1 1 0 0 0-1.414 1.414l5.657 5.657a1 1 0 0 0 1.414 0l5.657-5.657a1 1 0 0 0 0-1.414z"/>
  </symbol>
  <symbol viewBox="0 0 24 24" id="ni-arrow-left">
    <path d="M20 11H6.414l3.95-3.95A1 1 0 0 0 8.95 5.636l-5.657 5.657a1 1 0 0 0 0 1.414l5.657 5.657a1 1 0 0 0 1.414-1.414L6.414 13H20a1 1 0 0 0 0-2z"/>
  </symbol>
  <symbol viewBox="0 0 24 24" id="ni-arrow-right">
    <path d="M20.707 11.293L15.05 5.636a1 1 0 0 0-1.414 1.414l3.95 3.95H4a1 1 0 0 0 0 2h13.586l-3.95 3.95a1 1 0 1 0 1.414 1.414l5.657-5.657a1 1 0 0 0 0-1.414z"/>
  </symbol>
  <symbol viewBox="0 0 24 24" id="ni-arrow-up">
    <path d="M18.364 8.95l-5.657-5.657a1 1 0 0 0-1.414 0L5.636 8.95a1 1 0 0 0 1.414 1.414L11 6.414V20a1 1 0 0 0 2 0V6.414l3.95 3.95a1 1 0 0 0 1.414-1.414z"/>
  </symbol>
  <symbol viewBox="0 0 24 24" id="ni-check">
    <path d="M9.172 18.657a1 1 0 0 1-.707-.293l-5.657-5.657a1 1 0 0 1 1.414-1.414l4.95 4.95L19.778 5.636a1 1 0 0 1 1.414 1.414L9.879 18.364a1 1 0 0 1-.707.293z"/>
  </symbol>
  <symbol viewBox="0 0 24 24" id="ni-chevron-down">
    <path d="M12 16a1 1 0 0 1-.707-.293L5.636 10.05A1 1 0 0 1 7.05 8.636l4.95 4.95 4.95-4.95a1 1 0 0 1 1.414 1.414l-5.657 5.657A1 1 0 0 1 12 16z"/>
  </symbol>
  <symbol viewBox="0 0 24 24" id="ni-chevron-left">
    <path d="M14.657 18.657a1 1 0 0 1-.707-.293l-5.657-5.657a1 1 0 0 1 0-1.414l5.657-5.657a1 1 0 0 1 1.414 1.414L10.414 12l4.95 4.95a1 1 0 0 1-.707 1.707z"/>
  </symbol>
  <symbol viewBox="0 0 24 24" id="ni-chevron-right">
    <path d="M9.343 18.657a1 1 0 0 1-.707-1.707l4.95-4.95-4.95-4.95a1 1 0 0 1 1.414-1.414l5.657 5.657a1 1 0 0 1 0 1.414l-5.657 5.657a1 1 0 0 1-.707.293z"/>
  </symbol>
  <symbol viewBox="0 0 24 24" id="ni-chevron-up">
    <path d="M17.657 15.657a1 1 0 0 1-.707-.293L12 10.414l-4.95 4.95a1 1 0 0 1-1.414-1.414l5.657-5.657a1 1 0 0 1 1.414 0l5.657 5.657a1 1 0 0 1-.707 1.707z"/>
  </symbol>
  <symbol viewBox="0 0 24 24" id="ni-clock">
    <path d="M12 21a9 9 0 1 1 9-9 9.01 9.01 0 0 1-9 9zm0-16a7 7 0 1 0 7 7 7.008 7.008 0 0 0-7-7z"/>
    <path d="M15.03 14.75a1 1 0 0 1-.5-.134l-3.03-1.75A1 1 0 0 1 11 12V7.5a1 1 0 0 1 2 0v3.923l2.531 1.461a1 1 0 0 1-.501 1.866z"/>
  </symbol>
  <symbol viewBox="0 0 24 24" id="ni-close">
    <path d="M13.414 12l4.95-4.95a1 1 0 0 0-1.414-1.414L12 10.586l-4.95-4.95A1 1 0 0 0 5.636 7.05l4.95 4.95-4.95 4.95a1 1 0 0 0 1.414 1.414l4.95-4.95 4.95 4.95a1 1 0 0 0 1.414-1.414z"/>
  </symbol>
  <symbol viewBox="0 0 24 24" id="ni-code">
    <path d="M8.657 18.657a1 1 0 0 1-.707-.293l-5.657-5.657a1 1 0 0 1 0-1.414L7.95 5.636A1 1 0 0 1 9.364 7.05L4.414 12l4.95 4.95a1 1 0 0 1-.707 1.707zM15.343 18.657a1 1 0 0 1-.707-1.707l4.95-4.95-4.95-4.95a1 1 0 1 1 1.414-1.414l5.657 5.657a1 1 0 0 1 0 1.414l-5.657 5.657a1 1 0 0 1-.707.293z"/>
  </symbol>
  <symbol viewBox="0 0 24 24" id="ni-comment">
    <path d="M8 21a1 1 0 0 1-1-1v-3H5a2 2 0 0 1-2-2V5a2 2 0 0 1 2-2h14a2 2 0 0 1 2 2v10a2 2 0 0 1-2 2h-6.586l-3.707 3.707A1 1 0 0 1 8 21zM19 5H5v10h3a1 1 0 0 1 1 1v1.586l2.293-2.293A1 1 0 0 1 12 15h7z"/>
  </symbol>
  <symbol viewBox="0 0 24 24" id="ni-commenting">
    <path d="M8 21a1 1 0 0 1-1-1v-3H5a2 2 0 0 1-2-2V5a2 2 0 0 1 2-2h14a2 2 0 0 1 2 2v10a2 2 0 0 1-2 2h-6.586l-3.707 3.707A1 1 0 0 1 8 21zM19 5H5v10h3a1 1 0 0 1 1 1v1.586l2.293-2.293A1 1 0 0 1 12 15h7V5z"/>
    <circle cx="16" cy="10" r="1"/>
    <circle cx="12" cy="10" r="1"/>
    <circle cx="8" cy="10" r="1"/>
  </symbol>
  <symbol viewBox="0 0 24 24" id="ni-comments">
    <path d="M20.25 6H19v2h1v8h-3a1 1 0 0 0-1 1v1.586l-2.293-2.293A1 1 0 0 0 13 16h-2.172l-2 2h3.758l3.707 3.707A1 1 0 0 0 18 21v-3h2.25A1.752 1.752 0 0 0 22 16.25v-8.5A1.752 1.752 0 0 0 20.25 6z"/>
    <path d="M7 18a1 1 0 0 1-1-1v-3H3.75A1.752 1.752 0 0 1 2 12.25v-8.5A1.752 1.752 0 0 1 3.75 2h12.5A1.752 1.752 0 0 1 18 3.75v8.5a1.762 1.762 0 0 1-.514 1.238A1.736 1.736 0 0 1 16.25 14h-4.836l-3.707 3.707A1 1 0 0 1 7 18zm-3-6h3a1 1 0 0 1 1 1v1.586l2.293-2.293A1 1 0 0 1 11 12h5V4H4v8z"/>
  </symbol>
  <symbol viewBox="0 0 24 24" id="ni-ellipsis">
    <circle cx="17.5" cy="12" r="1.5"/>
    <circle cx="12" cy="12" r="1.5"/>
    <circle cx="6.5" cy="12" r="1.5"/>
  </symbol>
  <symbol viewBox="0 0 24 24" id="ni-ellipsis-vertical">
    <circle cx="12" cy="17.5" r="1.5"/>
    <circle cx="12" cy="12" r="1.5"/>
    <circle cx="12" cy="6.5" r="1.5"/>
  </symbol>
  <symbol viewBox="0 0 24 24" id="ni-gear">
    <path d="M12 21a8.985 8.985 0 0 1-1.755-.173 1 1 0 0 1-.791-.813l-.273-1.606a6.933 6.933 0 0 1-1.32-.762l-1.527.566a1 1 0 0 1-1.1-.278 8.977 8.977 0 0 1-1.756-3.041 1 1 0 0 1 .31-1.092l1.254-1.04a6.979 6.979 0 0 1 0-1.524L3.787 10.2a1 1 0 0 1-.31-1.092 8.977 8.977 0 0 1 1.756-3.042 1 1 0 0 1 1.1-.278l1.527.566a6.933 6.933 0 0 1 1.32-.762l.274-1.606a1 1 0 0 1 .791-.813 8.957 8.957 0 0 1 3.51 0 1 1 0 0 1 .791.813l.273 1.606a6.933 6.933 0 0 1 1.32.762l1.527-.566a1 1 0 0 1 1.1.278 8.977 8.977 0 0 1 1.756 3.041 1 1 0 0 1-.31 1.092l-1.254 1.04a6.979 6.979 0 0 1 0 1.524l1.254 1.04a1 1 0 0 1 .31 1.092 8.977 8.977 0 0 1-1.756 3.041 1 1 0 0 1-1.1.278l-1.527-.566a6.933 6.933 0 0 1-1.32.762l-.273 1.606a1 1 0 0 1-.791.813A8.985 8.985 0 0 1 12 21zm-.7-2.035a6.913 6.913 0 0 0 1.393 0l.247-1.451a1 1 0 0 1 .664-.779 4.974 4.974 0 0 0 1.696-.975 1 1 0 0 1 1.008-.186l1.381.512a7.012 7.012 0 0 0 .7-1.206l-1.133-.939a1 1 0 0 1-.343-.964 5.018 5.018 0 0 0 0-1.953 1 1 0 0 1 .343-.964l1.124-.94a7.012 7.012 0 0 0-.7-1.206l-1.38.512a1 1 0 0 1-1-.186 4.974 4.974 0 0 0-1.688-.976 1 1 0 0 1-.664-.779l-.248-1.45a6.913 6.913 0 0 0-1.393 0l-.25 1.45a1 1 0 0 1-.664.779A4.974 4.974 0 0 0 8.7 8.24a1 1 0 0 1-1 .186l-1.385-.512a7.012 7.012 0 0 0-.7 1.206l1.133.939a1 1 0 0 1 .343.964 5.018 5.018 0 0 0 0 1.953 1 1 0 0 1-.343.964l-1.128.94a7.012 7.012 0 0 0 .7 1.206l1.38-.512a1 1 0 0 1 1 .186 4.974 4.974 0 0 0 1.688.976 1 1 0 0 1 .664.779zm.7-3.725a3.24 3.24 0 0 1 0-6.48 3.24 3.24 0 0 1 0 6.48zm0-4.48A1.24 1.24 0 1 0 13.24 12 1.244 1.244 0 0 0 12 10.76z"/>
  </symbol>
  <symbol viewBox="0 0 24 24" id="ni-heart">
    <path d="M12 20a1 1 0 0 1-.437-.1C11.214 19.73 3 15.671 3 9a5 5 0 0 1 8.535-3.536l.465.465.465-.465A5 5 0 0 1 21 9c0 6.646-8.212 10.728-8.562 10.9A1 1 0 0 1 12 20zM8 6a3 3 0 0 0-3 3c0 4.639 5.4 7.981 7 8.868 1.6-.89 7-4.247 7-8.868a3 3 0 0 0-5.121-2.121L12.707 8.05a1 1 0 0 1-1.414 0l-1.172-1.171A2.98 2.98 0 0 0 8 6z"/>
  </symbol>
  <symbol viewBox="0 0 24 24" id="ni-heart-solid">
    <path d="M12 20a1 1 0 0 1-.437-.1C11.214 19.73 3 15.671 3 9a5 5 0 0 1 8.535-3.536l.465.465.465-.465A5 5 0 0 1 21 9c0 6.646-8.212 10.728-8.562 10.9A1 1 0 0 1 12 20z"/>
  </symbol>
  <symbol viewBox="0 0 24 24" id="ni-home">
    <path d="M20.707 11.293l-8-8a1 1 0 0 0-1.414 0l-8 8a1 1 0 0 0 1.414 1.414L5 12.414V20a1 1 0 0 0 1 1h12a1 1 0 0 0 1-1v-7.586l.293.293a1 1 0 0 0 1.414-1.414zM13 19h-2v-4h2v4zm4 0h-2v-5a1 1 0 0 0-1-1h-4a1 1 0 0 0-1 1v5H7v-8.586l5-5 5 5V19z"/>
  </symbol>
  <symbol viewBox="0 0 24 24" id="ni-location">
    <path d="M12 21a1 1 0 0 1-.744-.332C10.615 19.954 5 13.59 5 10a7 7 0 0 1 14 0c0 3.59-5.615 9.954-6.256 10.668A1 1 0 0 1 12 21zm0-16a5.006 5.006 0 0 0-5 5c0 1.907 2.816 5.884 5 8.475 2.184-2.592 5-6.57 5-8.475a5.006 5.006 0 0 0-5-5z"/>
    <circle cx="12" cy="10" r="2"/>
  </symbol>
  <symbol viewBox="0 0 24 24" id="ni-mail">
    <path d="M19 5H5a2 2 0 0 0-2 2v10a2 2 0 0 0 2 2h14a2 2 0 0 0 2-2V7a2 2 0 0 0-2-2zm0 2v1.031l-6.489 3.86a1 1 0 0 1-1.022 0L5 8.031V7h14zM5 17v-6.642l5.466 3.251a3 3 0 0 0 3.067 0L19 10.358V17H5z"/>
  </symbol>
  <symbol viewBox="0 0 24 24" id="ni-mail-open">
    <path d="M20.511 7.571l-6.977-4.149a3 3 0 0 0-3.067 0L3.489 7.571a1 1 0 0 0-.489.86V19a2 2 0 0 0 2 2h14a2 2 0 0 0 2-2V8.431a1 1 0 0 0-.489-.86zm-9.022-2.43a1 1 0 0 1 1.022 0l6.445 3.833L12 13.32 5.043 8.973zM5 19v-7.7l6.47 4.044a1 1 0 0 0 1.06 0L19 11.3V19H5z"/>
  </symbol>
  <symbol viewBox="0 0 24 24" id="ni-menu">
    <rect x="3" y="17" width="18" height="2" rx="1" ry="1"/>
    <rect x="3" y="11" width="18" height="2" rx="1" ry="1"/>
    <rect x="3" y="5" width="18" height="2" rx="1" ry="1"/>
  </symbol>
  <symbol viewBox="0 0 24 24" id="ni-pencil">
    <path d="M20.269 5.614l-1.883-1.883a2.5 2.5 0 0 0-3.531 0l-9.562 9.562a1 1 0 0 0-.242.391l-2 6a1 1 0 0 0 1.265 1.265l6-2a1 1 0 0 0 .391-.242l9.562-9.562a2.5 2.5 0 0 0 0-3.531zM7.414 14L14 7.414 16.586 10 10 16.586zm-.977 1.851l1.712 1.712-2.568.856zm12.417-8.12L18 8.586 15.414 6l.854-.854a.5.5 0 0 1 .7 0l1.883 1.883a.5.5 0 0 1 .003.702z"/>
  </symbol>
  <symbol viewBox="0 0 24 24" id="ni-people">
    <path d="M.221 16.268a15.064 15.064 0 0 0 1.789 1.9C2.008 18.111 2 18.057 2 18a5.029 5.029 0 0 1 3.233-4.678 1 1 0 0 0 .175-1.784A2.968 2.968 0 0 1 4 9a2.988 2.988 0 0 1 5.022-2.2 5.951 5.951 0 0 1 2.022-.715 4.994 4.994 0 1 0-7.913 6.085 7.07 7.07 0 0 0-2.91 4.098zM23.779 16.268a7.07 7.07 0 0 0-2.91-4.1 4.994 4.994 0 1 0-7.913-6.086 5.949 5.949 0 0 1 2.022.715 2.993 2.993 0 1 1 3.614 4.74 1 1 0 0 0 .175 1.784A5.029 5.029 0 0 1 22 18c0 .057-.008.111-.01.167a15.065 15.065 0 0 0 1.789-1.899z"/>
    <path d="M18.954 20.284a7.051 7.051 0 0 0-3.085-5.114A4.956 4.956 0 0 0 17 12a5 5 0 1 0-8.869 3.17 7.051 7.051 0 0 0-3.085 5.114 14.923 14.923 0 0 0 1.968.849C7.012 21.088 7 21.046 7 21a5.031 5.031 0 0 1 3.233-4.678 1 1 0 0 0 .175-1.785A2.964 2.964 0 0 1 9 12a3 3 0 1 1 6 0 2.964 2.964 0 0 1-1.408 2.537 1 1 0 0 0 .175 1.785A5.031 5.031 0 0 1 17 21c0 .046-.012.088-.013.133a14.919 14.919 0 0 0 1.967-.849z"/>
  </symbol>
  <symbol viewBox="0 0 24 24" id="ni-person">
    <path d="M20.474 19.013a8.941 8.941 0 0 0-4.115-4.89 6 6 0 1 0-8.717 0 8.941 8.941 0 0 0-4.115 4.89 11.065 11.065 0 0 0 1.63 1.59 6.965 6.965 0 0 1 4.728-5.275 1 1 0 0 0 .181-1.829 4 4 0 1 1 3.871 0 1 1 0 0 0 .181 1.829 6.965 6.965 0 0 1 4.726 5.272 11.059 11.059 0 0 0 1.63-1.587z"/>
  </symbol>
  <symbol viewBox="0 0 24 24" id="ni-quote-left">
    <path d="M6.5 19A4.5 4.5 0 0 1 2 14.5V14a10.718 10.718 0 0 1 6.614-9.922 1 1 0 1 1 .771 1.845A8.726 8.726 0 0 0 4 14v.5A2.5 2.5 0 1 0 6.5 12a1 1 0 0 1 0-2 4.5 4.5 0 0 1 0 9zM16.5 19a4.5 4.5 0 0 1-4.5-4.5V14a10.718 10.718 0 0 1 6.614-9.921 1 1 0 1 1 .771 1.845A8.726 8.726 0 0 0 14 14v.5a2.5 2.5 0 1 0 2.5-2.5 1 1 0 0 1 0-2 4.5 4.5 0 0 1 0 9z"/>
  </symbol>
  <symbol viewBox="0 0 24 24" id="ni-quote-right">
    <path d="M15 20a1 1 0 0 1-.386-1.922A8.726 8.726 0 0 0 20 10v-.5a2.5 2.5 0 1 0-2.5 2.5 1 1 0 0 1 0 2A4.5 4.5 0 1 1 22 9.5v.5a10.718 10.718 0 0 1-6.614 9.921A1 1 0 0 1 15 20zM5 20a1 1 0 0 1-.386-1.922A8.726 8.726 0 0 0 10 10v-.5A2.5 2.5 0 1 0 7.5 12a1 1 0 0 1 0 2A4.5 4.5 0 1 1 12 9.5v.5a10.718 10.718 0 0 1-6.614 9.921A1 1 0 0 1 5 20z"/>
  </symbol>
  <symbol viewBox="0 0 24 24" id="ni-rss">
    <path d="M14 20h-2a8.009 8.009 0 0 0-8-8v-2a10.011 10.011 0 0 1 10 10z"/>
    <path d="M20 20h-2A14.016 14.016 0 0 0 4 6V4a16.018 16.018 0 0 1 16 16z"/>
    <circle cx="5.5" cy="18.5" r="1.5"/>
  </symbol>
  <symbol viewBox="0 0 24 24" id="ni-search">
    <path d="M20.207 18.793L16.6 15.184a7.027 7.027 0 1 0-1.416 1.416l3.609 3.609a1 1 0 0 0 1.414-1.416zM6 11a5 5 0 1 1 5 5 5.006 5.006 0 0 1-5-5z"/>
  </symbol>
  <symbol viewBox="0 0 24 24" id="ni-star">
    <path d="M16.948 20.2a1 1 0 0 1-.465-.115l-4.472-2.352-4.471 2.348a1 1 0 0 1-1.451-1.054l.854-4.979-3.619-3.527a1 1 0 0 1 .554-1.706l5-.727 2.237-4.531A1 1 0 0 1 12.011 3a1 1 0 0 1 .9.558l2.236 4.53 5 .727a1 1 0 0 1 .554 1.706l-3.621 3.526.854 4.98a1 1 0 0 1-.986 1.173zM6.171 10.5l2.544 2.479a1 1 0 0 1 .285.888l-.6 3.5 3.144-1.653a.993.993 0 0 1 .931 0l3.144 1.653-.6-3.5a1 1 0 0 1 .288-.885l2.544-2.482-3.515-.511a1 1 0 0 1-.752-.547l-1.573-3.183-1.573 3.186a1 1 0 0 1-.752.547z"/>
  </symbol>
  <symbol viewBox="0 0 24 24" id="ni-star-solid">
    <path d="M16.926 20.2a1 1 0 0 1-.466-.115l-4.471-2.352-4.471 2.348a1 1 0 0 1-1.451-1.054l.854-4.98L3.3 10.521a1 1 0 0 1 .555-1.706l5-.727 2.237-4.531A1 1 0 0 1 11.989 3a1 1 0 0 1 .9.558l2.236 4.53 5 .727a1 1 0 0 1 .555 1.706l-3.618 3.527.854 4.98a1 1 0 0 1-.99 1.172z"/>
  </symbol>
  <symbol viewBox="0 0 24 24" id="ni-tag">
    <path d="M13 21a1 1 0 0 1-.707-.293l-9-9A1 1 0 0 1 3 11V7a4 4 0 0 1 4-4h4a1 1 0 0 1 .707.293l9 9a1 1 0 0 1 0 1.414l-7 7A1 1 0 0 1 13 21zM5 10.586l8 8L18.586 13l-8-8H7a2 2 0 0 0-2 2v3.586z"/>
    <circle cx="8.5" cy="8.5" r="1.5"/>
  </symbol>
  <symbol viewBox="0 0 24 24" id="ni-trash">
    <path d="M20 6h-3.155a.949.949 0 0 0-.064-.125l-1.7-2.124A1.989 1.989 0 0 0 13.519 3h-3.038a1.987 1.987 0 0 0-1.562.75l-1.7 2.125A.949.949 0 0 0 7.155 6H4a1 1 0 0 0 0 2h1v11a2 2 0 0 0 1.994 2h10.011A2 2 0 0 0 19 19V8h1a1 1 0 0 0 0-2zm-9.519-1h3.038l.8 1H9.681zm6.524 14H7V8h10z"/>
    <path d="M14 18a1 1 0 0 1-1-1v-7a1 1 0 0 1 2 0v7a1 1 0 0 1-1 1zM10 18a1 1 0 0 1-1-1v-7a1 1 0 0 1 2 0v7a1 1 0 0 1-1 1z"/>
  </symbol>
</svg>
