<?xml version="1.0" encoding="utf-8"?>
<svg xmlns="http://www.w3.org/2000/svg" xmlns:xlink="http://www.w3.org/1999/xlink">
  <symbol viewBox="0 0 24 24" id="ni-add">
    <path d="M13 11h7a1 1 0 0 1 0 2h-7v7a1 1 0 0 1-2 0v-7H4a1 1 0 0 1 0-2h7V4a1 1 0 0 1 2 0v7z"/>
  </symbol>
  <symbol viewBox="0 0 24 24" id="ni-arrow-down">
    <path d="M11 17.589l-3.951-3.948a1 1 0 1 0-1.414 1.414l5.657 5.654a1.004 1.004 0 0 0 1.414 0l5.656-5.654a1.002 1.002 0 0 0-.692-1.721c-.272 0-.534.111-.722.307L13 17.589V3.994A1 1 0 0 0 12 3a1 1 0 0 0-1 .994v13.595z"/>
  </symbol>
  <symbol viewBox="0 0 24 24" id="ni-arrow-left">
    <path d="M6.411 11l3.948-3.951a1 1 0 1 0-1.414-1.414l-5.654 5.657a1.004 1.004 0 0 0 0 1.414l5.654 5.656a1.002 1.002 0 0 0 1.721-.692c0-.272-.111-.534-.307-.722L6.411 13h13.595A1 1 0 0 0 21 12a1 1 0 0 0-.994-1H6.411z"/>
  </symbol>
  <symbol viewBox="0 0 24 24" id="ni-arrow-right">
    <path d="M17.589 11l-3.948-3.951a1 1 0 1 1 1.414-1.414l5.654 5.657a1.004 1.004 0 0 1 0 1.414l-5.654 5.656a1.002 1.002 0 0 1-1.721-.692c0-.272.111-.534.307-.722L17.589 13H3.994A1 1 0 0 1 3 12a1 1 0 0 1 .994-1h13.595z"/>
  </symbol>
  <symbol viewBox="0 0 24 24" id="ni-arrow-up">
    <path d="M11 6.411l-3.951 3.948a1 1 0 1 1-1.414-1.414l5.657-5.654a1.004 1.004 0 0 1 1.414 0l5.656 5.654a1.002 1.002 0 0 1-.692 1.721c-.272 0-.534-.111-.722-.307L13 6.411v13.595A1 1 0 0 1 12 21a1 1 0 0 1-1-.994V6.411z"/>
  </symbol>
  <symbol viewBox="0 0 24 24" id="ni-check">
    <path d="M20.467 5.34c-.26.008-.506.117-.687.303L9.174 16.248l-4.949-4.949a1.002 1.002 0 0 0-.722-.307c-.548 0-1 .451-1 1 0 .272.111.533.308.721l5.656 5.656a1.004 1.004 0 0 0 1.414 0L21.194 7.057c.193-.188.303-.447.303-.717 0-.549-.452-1-1-1h-.03z"/>
  </symbol>
  <symbol viewBox="0 0 24 24" id="ni-chevron-down">
    <path d="M6.331 8.334c-.549 0-1 .452-1 1 0 .271.11.531.304.719l5.657 5.656a1.004 1.004 0 0 0 1.414 0l5.656-5.656a1.002 1.002 0 0 0-.693-1.722 1 1 0 0 0-.721.308l-4.949 4.949-4.95-4.949a.999.999 0 0 0-.718-.305z"/>
  </symbol>
  <symbol viewBox="0 0 24 24" id="ni-chevron-left">
    <path d="M14.635 5.332a1 1 0 0 0-.688.303l-5.656 5.656a1.004 1.004 0 0 0 0 1.414l5.656 5.656c.189.196.449.308.721.308.549 0 1.001-.452 1.001-1.001 0-.272-.112-.532-.308-.721l-4.949-4.949 4.949-4.949a1 1 0 0 0-.697-1.718l-.029.001z"/>
  </symbol>
  <symbol viewBox="0 0 24 24" id="ni-chevron-right">
    <path d="M8.334 17.669c0 .549.452 1 1 1 .271 0 .531-.11.719-.304l5.656-5.657a1.004 1.004 0 0 0 0-1.414l-5.656-5.656a1.002 1.002 0 0 0-1.722.693 1 1 0 0 0 .308.721l4.949 4.949-4.949 4.95a.999.999 0 0 0-.305.718z"/>
  </symbol>
  <symbol viewBox="0 0 24 24" id="ni-chevron-up">
    <path d="M17.669 15.666c.549 0 1-.452 1-1 0-.271-.11-.531-.304-.719l-5.657-5.656a1.004 1.004 0 0 0-1.414 0l-5.656 5.656a1.002 1.002 0 0 0 .693 1.722 1 1 0 0 0 .721-.308l4.949-4.949 4.95 4.949a.999.999 0 0 0 .718.305z"/>
  </symbol>
  <symbol viewBox="0 0 24 24" id="ni-close">
    <path d="M12 10.586l4.95-4.95a1 1 0 0 1 1.414 1.414L13.414 12l4.95 4.95a1 1 0 0 1-1.414 1.414L12 13.414l-4.95 4.95a1 1 0 0 1-1.414-1.414l4.95-4.95-4.95-4.95A1 1 0 0 1 7.05 5.636l4.95 4.95z"/>
  </symbol>
  <symbol viewBox="0 0 24 24" id="ni-comment">
    <path d="M5 3c-1.093 0-2 .907-2 2v10c0 1.093.907 2 2 2h2v3c0 .548.452 1 1 1 .265 0 .52-.106.707-.293L12.414 17H19a1.997 1.997 0 0 0 2-2V5c0-1.093-.907-2-2-2H5zm0 2h14v10h-7c-.265 0-.52.106-.707.293L9 17.586V16c0-.549-.451-1-1-1H5V5z"/>
  </symbol>
  <symbol viewBox="0 0 24 24" id="ni-commenting">
    <path d="M5 3c-1.093 0-2 .907-2 2v10c0 1.093.907 2 2 2h2v3c0 .548.452 1 1 1 .265 0 .52-.106.707-.293L12.414 17H19a1.997 1.997 0 0 0 2-2V5c0-1.093-.907-2-2-2H5zm0 2h14v10h-7c-.265 0-.52.106-.707.293L9 17.586V16c0-.549-.451-1-1-1H5V5z"/>
    <circle cx="16" cy="10" r="1"/>
    <circle cx="12" cy="10" r="1"/>
    <circle cx="8" cy="10" r="1"/>
  </symbol>
  <symbol viewBox="0 0 24 24" id="ni-comments">
    <path d="M10.828 16H13c.265 0 .52.106.707.293L16 18.586V17c0-.548.451-1 1-1h3V8h-1V6h1.25c.955 0 1.75.795 1.75 1.75v8.5c0 .955-.795 1.75-1.75 1.75H18v3c0 .549-.452 1-1 1a.997.997 0 0 1-.707-.293L12.586 18H8.828l2-2z"/>
    <path d="M3.75 2C2.795 2 2 2.795 2 3.75v8.5c0 .955.795 1.75 1.75 1.75H6v3c0 .549.452 1 1 1 .265 0 .52-.105.707-.293L11.414 14h4.836A1.752 1.752 0 0 0 18 12.25v-8.5C18 2.795 17.205 2 16.25 2H3.75zM4 4h12v8h-5c-.265 0-.52.106-.707.293L8 14.586V13c0-.548-.451-1-1-1H4V4z"/>
  </symbol>
  <symbol viewBox="0 0 24 24" id="ni-ellipsis">
    <circle cx="17.5" cy="12" r="1.5"/>
    <circle cx="12" cy="12" r="1.5"/>
    <circle cx="6.5" cy="12" r="1.5"/>
  </symbol>
  <symbol viewBox="0 0 24 24" id="ni-ellipsis-vertical">
    <circle cx="12" cy="17.5" r="1.5"/>
    <circle cx="12" cy="12" r="1.5"/>
    <circle cx="12" cy="6.5" r="1.5"/>
  </symbol>
  <symbol viewBox="0 0 24 24" id="ni-gear">
    <path d="M10.244 3.174c-.406.08-.721.405-.791.812L9.16 5.711c-.418.189-.81.418-1.183.685l-1.645-.609a1.004 1.004 0 0 0-1.1.279 9.004 9.004 0 0 0-1.753 3.041 1 1 0 0 0 .308 1.09l1.348 1.119a6.948 6.948 0 0 0 0 1.368l-1.348 1.119a1 1 0 0 0-.308 1.09 9.004 9.004 0 0 0 1.753 3.041c.273.311.712.422 1.1.279l1.645-.609c.373.267.765.496 1.183.685l.293 1.725c.07.407.385.732.791.812a8.986 8.986 0 0 0 3.512 0c.406-.08.721-.405.791-.812l.293-1.725c.418-.189.81-.418 1.183-.685l1.645.609c.388.143.827.032 1.1-.279a9.004 9.004 0 0 0 1.753-3.041 1 1 0 0 0-.308-1.09l-1.348-1.119a6.948 6.948 0 0 0 0-1.368l1.348-1.119a1 1 0 0 0 .308-1.09 9.004 9.004 0 0 0-1.753-3.041 1.004 1.004 0 0 0-1.1-.279l-1.645.609a6.934 6.934 0 0 0-1.183-.685l-.293-1.725a1.002 1.002 0 0 0-.791-.812 8.986 8.986 0 0 0-3.512 0zm1.043 1.961c.476-.049.95-.049 1.426 0l.23 1.351c.062.361.318.66.664.778a5.016 5.016 0 0 1 1.69.976c.276.242.664.314 1.008.186l1.285-.477c.28.388.517.799.713 1.235l-1.057.875a1.002 1.002 0 0 0-.342.964 5.02 5.02 0 0 1 0 1.954c-.071.359.06.73.342.964l1.057.875a7.025 7.025 0 0 1-.713 1.235l-1.285-.477a1.001 1.001 0 0 0-1.008.186 5.016 5.016 0 0 1-1.69.976 1.003 1.003 0 0 0-.664.778l-.23 1.351c-.476.049-.95.049-1.426 0l-.23-1.351a1.003 1.003 0 0 0-.664-.778 5.016 5.016 0 0 1-1.69-.976 1.001 1.001 0 0 0-1.008-.186l-1.285.477a7.025 7.025 0 0 1-.713-1.235l1.057-.875c.282-.234.413-.605.342-.964a5.02 5.02 0 0 1 0-1.954c.071-.359-.06-.73-.342-.964l-1.057-.875c.196-.436.433-.847.713-1.235l1.285.477c.344.128.732.056 1.008-.186a5.016 5.016 0 0 1 1.69-.976c.346-.118.602-.417.664-.778l.23-1.351zM12 8.76A3.255 3.255 0 0 0 8.76 12 3.255 3.255 0 0 0 12 15.24 3.255 3.255 0 0 0 15.24 12 3.255 3.255 0 0 0 12 8.76zm0 2c.694 0 1.24.546 1.24 1.24s-.546 1.24-1.24 1.24-1.24-.546-1.24-1.24.546-1.24 1.24-1.24z"/>
  </symbol>
  <symbol viewBox="0 0 24 24" id="ni-heart">
    <path d="M8 4C5.251 4 3 6.251 3 9c0 3.496 2.236 6.221 4.346 8.051s4.218 2.849 4.218 2.849a1 1 0 0 0 .874-.002c-.001 0 2.109-1.024 4.218-2.857C18.766 15.208 21 12.486 21 9c0-2.749-2.251-5-5-5a4.996 4.996 0 0 0-3.535 1.465L12 5.93l-.465-.465A4.996 4.996 0 0 0 8 4zm0 2a2.98 2.98 0 0 1 2.121.879l1.172 1.172a1.004 1.004 0 0 0 1.414 0l1.172-1.172A2.98 2.98 0 0 1 16 6c1.667 0 3 1.333 3 3 0 2.611-1.766 4.888-3.656 6.531-1.672 1.453-2.979 2.087-3.344 2.274-.363-.186-1.673-.815-3.346-2.266C6.764 13.9 5 11.625 5 9c0-1.667 1.333-3 3-3z"/>
  </symbol>
  <symbol viewBox="0 0 24 24" id="ni-heart-solid">
    <path d="M8 4C5.251 4 3 6.251 3 9c0 3.496 2.236 6.221 4.346 8.051s4.218 2.849 4.218 2.849a1 1 0 0 0 .874-.002c-.001 0 2.109-1.024 4.218-2.857C18.766 15.208 21 12.486 21 9c0-2.749-2.251-5-5-5a4.996 4.996 0 0 0-3.535 1.465L12 5.93l-.465-.465A4.996 4.996 0 0 0 8 4z"/>
  </symbol>
  <symbol viewBox="0 0 24 24" id="ni-home">
    <path d="M5 12.414l-.293.293a1 1 0 0 1-.721.308C3.437 13.015 3 12.549 3 12c0-.272.097-.518.293-.707l8-8a1 1 0 0 1 1.414 0l8 8A.957.957 0 0 1 21 12c0 .549-.437 1.015-.986 1.015a1 1 0 0 1-.721-.308L19 12.414V20c0 .549-.451 1-1 1H6c-.549 0-1-.451-1-1v-7.586zm2-2V19h2v-5c0-.548.451-1 1-1h4c.549 0 1 .452 1 1v5h2v-8.586l-5-5-5 5zM11 15v4h2v-4h-2z"/>
  </symbol>
  <symbol viewBox="0 0 24 24" id="ni-location">
    <path d="M12 3c-3.852 0-7 3.148-7 7 0 1.13.451 2.257 1.049 3.418.598 1.161 1.37 2.34 2.139 3.408 1.536 2.137 3.068 3.842 3.068 3.842a1 1 0 0 0 1.488 0s1.532-1.705 3.069-3.842c.768-1.068 1.54-2.247 2.138-3.408C18.549 12.257 19 11.13 19 10c0-3.852-3.148-7-7-7zm0 2c2.77 0 5 2.23 5 5 0 .526-.299 1.478-.826 2.502-.527 1.024-1.255 2.139-1.986 3.156-1.093 1.519-1.703 2.181-2.188 2.742-.485-.561-1.095-1.223-2.187-2.742-.732-1.017-1.46-2.132-1.987-3.156C7.299 11.478 7 10.526 7 10c0-2.77 2.23-5 5-5z"/>
    <circle cx="12" cy="10" r="2"/>
  </symbol>
  <symbol viewBox="0 0 24 24" id="ni-menu">
    <path d="M20 17a.997.997 0 0 1 1 1 .997.997 0 0 1-1 1H4a.997.997 0 0 1-1-1 .997.997 0 0 1 1-1h16zM3 12a.997.997 0 0 1 1-1h16a.997.997 0 0 1 1 1 .997.997 0 0 1-1 1H4a.997.997 0 0 1-1-1zM3 6a.997.997 0 0 1 1-1h16a.997.997 0 0 1 1 1 .997.997 0 0 1-1 1H4a.997.997 0 0 1-1-1z"/>
  </symbol>
  <symbol viewBox="0 0 24 24" id="ni-pencil">
    <path d="M16.65 3c-.642 0-1.285.241-1.769.725l-1.567 1.568-8 8a.997.997 0 0 0-.24.388l-2.021 6a1.004 1.004 0 0 0 1.263 1.268l5.918-1.973c.187-.04.359-.134.495-.269l8-8 1.566-1.566a2.516 2.516 0 0 0 0-3.537l-1.877-1.877A2.49 2.49 0 0 0 16.65 3zm.352 2.139v.002l1.879 1.879h.002a.485.485 0 0 1-.002.705l-.86.861L15.436 6l.859-.859a.486.486 0 0 1 .707-.002zm-2.981 2.275L16.607 10l-6.586 6.586L7.436 14l6.585-6.586zm-7.568 8.437l1.699 1.709-2.564.856.865-2.565z"/>
  </symbol>
  <symbol viewBox="0 0 24 24" id="ni-people">
    <path d="M5.037 20.287c.229-2.176 1.494-4.024 3.266-5.146C7.557 14.267 7 13.232 7 12c0-2.749 2.251-5 5-5s5 2.251 5 5c0 1.232-.557 2.267-1.303 3.141 1.772 1.122 3.037 2.97 3.266 5.146-.63.331-1.286.619-1.965.859L17 21a4.999 4.999 0 0 0-3.234-4.678 1 1 0 0 1-.174-1.783A2.979 2.979 0 0 0 15 12c0-1.667-1.333-3-3-3s-3 1.333-3 3c0 1.079.563 2.012 1.408 2.539a1.001 1.001 0 0 1-.174 1.783A4.999 4.999 0 0 0 7 21l.002.146a14.96 14.96 0 0 1-1.965-.859zm16.96-2.108a4.999 4.999 0 0 0-3.231-4.857 1 1 0 0 1-.174-1.783A2.979 2.979 0 0 0 20 9c0-1.667-1.333-3-3-3-.79 0-1.505.299-2.038.792a5.952 5.952 0 0 0-2.011-.716A5.004 5.004 0 0 1 17 4c2.749 0 5 2.251 5 5 0 1.232-.557 2.267-1.303 3.141 1.493.945 2.625 2.405 3.082 4.143a15.068 15.068 0 0 1-1.782 1.895zM.221 16.284c.457-1.738 1.589-3.198 3.082-4.143C2.557 11.267 2 10.232 2 9c0-2.749 2.251-5 5-5 1.66 0 3.138.821 4.049 2.076a5.952 5.952 0 0 0-2.011.716A2.986 2.986 0 0 0 7 6C5.333 6 4 7.333 4 9c0 1.079.563 2.012 1.408 2.539a1.001 1.001 0 0 1-.174 1.783 4.999 4.999 0 0 0-3.231 4.857 15.068 15.068 0 0 1-1.782-1.895z"/>
  </symbol>
  <symbol viewBox="0 0 24 24" id="ni-person">
    <path d="M3.529 19.014c.782-2.127 2.374-3.863 4.383-4.909C6.819 13.018 6 11.657 6 10c0-3.301 2.699-6 6-6s6 2.699 6 6c0 1.657-.819 3.018-1.912 4.105 2.009 1.046 3.601 2.782 4.383 4.909a11.016 11.016 0 0 1-1.612 1.583 7.004 7.004 0 0 0-4.742-5.269 1.002 1.002 0 0 1-.181-1.83A3.987 3.987 0 0 0 16 10c0-2.219-1.781-4-4-4-2.219 0-4 1.781-4 4 0 1.514.836 2.819 2.064 3.498a1.002 1.002 0 0 1-.181 1.83 7.004 7.004 0 0 0-4.742 5.269 11.016 11.016 0 0 1-1.612-1.583z"/>
  </symbol>
  <symbol viewBox="0 0 24 24" id="ni-rss">
    <path d="M4 10a10.058 10.058 0 0 1 10 10h-2c-.042-4.446-3.554-7.958-8-8v-2z"/>
    <path d="M4 4a16.054 16.054 0 0 1 16 16h-2A14.018 14.018 0 0 0 4 6V4z"/>
    <circle cx="5.5" cy="18.5" r="1.5"/>
  </symbol>
  <symbol viewBox="0 0 24 24" id="ni-search">
    <path d="M15.188 16.602A6.96 6.96 0 0 1 11 18c-3.854 0-7-3.146-7-7s3.146-7 7-7 7 3.146 7 7a6.96 6.96 0 0 1-1.398 4.188l3.591 3.59c.196.189.307.45.307.722 0 .549-.451 1-1 1-.272 0-.533-.111-.722-.307l-3.59-3.591zM11 6c-2.773 0-5 2.227-5 5s2.227 5 5 5 5-2.227 5-5-2.227-5-5-5z"/>
  </symbol>
  <symbol viewBox="0 0 24 24" id="ni-star">
    <path d="M12.012 3.002a1 1 0 0 0-.908.556L8.867 8.089l-5 .727C3.378 8.887 3 9.306 3 9.8c0 .269.12.533.313.721l3.619 3.527-.854 4.981a1.005 1.005 0 0 0 .986 1.17c.162 0 .322-.04.465-.115L12 17.732l4.471 2.352c.143.075.303.115.465.115a1.005 1.005 0 0 0 .986-1.17l-.854-4.981 3.62-3.527c.192-.188.312-.452.312-.721 0-.494-.378-.913-.867-.984l-5-.727-2.237-4.531a1 1 0 0 0-.884-.556zM12 6.261l1.572 3.186c.146.295.428.5.754.547l3.514.509-2.543 2.481a1 1 0 0 0-.289.885l.599 3.5-3.142-1.653a1.005 1.005 0 0 0-.93 0l-3.142 1.653.599-3.5a1 1 0 0 0-.289-.885L6.16 10.503l3.514-.509c.326-.047.608-.252.754-.547L12 6.261z"/>
  </symbol>
  <symbol viewBox="0 0 24 24" id="ni-star-solid">
    <path d="M12.012 3a1.002 1.002 0 0 0-.908.557L8.867 8.088l-5 .727a1.003 1.003 0 0 0-.856.989c0 .269.109.527.302.716l3.619 3.527-.854 4.98a1.004 1.004 0 0 0 .986 1.17.991.991 0 0 0 .465-.115L12 17.731l4.471 2.351a.991.991 0 0 0 .465.115 1.004 1.004 0 0 0 .986-1.17l-.854-4.98 3.62-3.527c.192-.189.301-.447.301-.716 0-.494-.367-.918-.856-.989l-5-.727-2.237-4.531A1 1 0 0 0 12.012 3z"/>
  </symbol>
  <symbol viewBox="0 0 24 24" id="ni-tag">
    <path d="M7.001 3.001a3.994 3.994 0 0 0-2.828 1.172 3.994 3.994 0 0 0-1.172 2.828v4c0 .265.106.52.293.707l9 9a1.004 1.004 0 0 0 1.414 0l7-7a1.004 1.004 0 0 0 0-1.414l-9-9a1.002 1.002 0 0 0-.707-.293h-4zm0 2h3.586l8 8-5.586 5.586-8-8V7.001a1.997 1.997 0 0 1 2-2z"/>
    <circle cx="8.5" cy="8.5" r="1.5"/>
  </symbol>
</svg>
